<?xml version="1.0" encoding="utf-8"?>
<!-- Generator: Adobe Illustrator 16.0.0, SVG Export Plug-In . SVG Version: 6.00 Build 0)  -->
<!DOCTYPE svg PUBLIC "-//W3C//DTD SVG 1.1//EN" "http://www.w3.org/Graphics/SVG/1.1/DTD/svg11.dtd">
<svg version="1.1" id="Layer_1" xmlns="http://www.w3.org/2000/svg" xmlns:xlink="http://www.w3.org/1999/xlink" x="0px" y="0px"
	 width="228px" height="70.562px" viewBox="0 0 228 70.562" enable-background="new 0 0 228 70.562" xml:space="preserve">
<g>
	<path fill="#FFFFFF" d="M70.562,0L70.562,0L0,0v70.541h0.808v0.021H228V0H70.562z M68.783,1.778v67.005H1.778V1.778H68.783z
		 M226.223,68.783H70.562V1.779h155.661V68.783z"/>
	<path fill="#FFFFFF" d="M181.654,40.34c-0.406,0.291-1.012,0.438-1.803,0.438c-1.631,0-2.76-0.71-3.359-2.111l-2.135,1.248
		c0.4,1.006,1.055,1.811,1.951,2.389c0.934,0.605,2.098,0.912,3.461,0.912c1.479,0,2.7-0.379,3.633-1.127
		c0.921-0.74,1.389-1.755,1.389-3.016c0-0.742-0.172-1.393-0.512-1.945c-0.218-0.407-0.649-0.812-1.299-1.209
		c-0.179-0.128-0.469-0.265-0.864-0.411c-0.429-0.174-0.731-0.289-0.907-0.343l-0.975-0.326c-1.059-0.32-1.779-0.621-2.213-0.922
		c-0.404-0.316-0.61-0.729-0.61-1.225c0-0.47,0.192-0.858,0.571-1.153c0.365-0.286,0.856-0.431,1.461-0.431
		c1.257,0,2.197,0.596,2.799,1.771l2.092-1.208c-0.47-0.925-1.121-1.656-1.938-2.171c-0.854-0.537-1.848-0.81-2.953-0.81
		c-1.261,0-2.344,0.378-3.223,1.125c-0.867,0.712-1.309,1.708-1.309,2.957c0,1.233,0.432,2.178,1.278,2.807
		c0.704,0.492,1.685,0.932,2.909,1.304c1.182,0.334,1.982,0.641,2.442,0.934c0.497,0.301,0.749,0.737,0.749,1.296
		C182.291,39.625,182.077,40.039,181.654,40.34z"/>
	<polygon fill="#FFFFFF" points="201.058,40.554 195.045,40.554 195.045,37.039 200.445,37.039 200.445,34.703 195.045,34.703 
		195.045,31.352 200.955,31.352 200.955,28.975 192.545,28.975 192.545,42.93 201.058,42.93 	"/>
	<path fill="#FFFFFF" d="M19.271,49.488c2.418,1.957,6.317,2.493,8.875,1.223l5.556-2.758c0,0,0,9.322,0,9.543
		c0,0.223,0.127,0.526,0.54,0.322c0.412-0.206,16.706-8.299,16.706-8.299c1.41-0.699,2.217-1.873,2.212-3.217
		c0-0.012-0.001-0.021-0.001-0.032l0.001-22.397h-0.002c0.022-1.224-0.645-2.469-1.867-3.458c-2.418-1.957-6.316-2.494-8.875-1.223
		l-6.98,3.472c0,0,0-9.493,0-9.729c0-0.236-0.145-0.324-0.37-0.212c-0.227,0.113-15.448,7.671-15.448,7.671
		c-1.282,0.636-2.062,1.649-2.193,2.853c-0.013,0.12-0.02,0.238-0.02,0.358l-0.001,22.552l0.001,0.037
		C17.44,47.373,18.104,48.543,19.271,49.488z M50.176,47.969l-14.742,7.323v-8.2l7.753-3.852c1.933-0.959,5.146-0.493,7.014,1.02
		c0.785,0.634,1.218,1.355,1.226,2.031v0.012h0c0,0,0.001,0.002,0.001,0.004C51.429,46.978,50.985,47.566,50.176,47.969z
		 M51.426,43.028c-0.045-0.039-0.089-0.077-0.136-0.114c-2.418-1.957-6.317-2.494-8.874-1.224l-6.982,3.468l0.001-10.421
		l15.511-7.715c0.17-0.084,0.33-0.175,0.481-0.272L51.426,43.028z M19.146,23.437c0.083-0.765,0.722-1.234,1.242-1.493l13.315-6.61
		l0,8.192l-6.324,3.146c-1.933,0.96-5.145,0.495-7.015-1.018C19.509,24.963,19.065,24.155,19.146,23.437z M19.134,46.143
		l0.001-19.257c0.045,0.038,0.09,0.076,0.138,0.114c2.418,1.957,6.316,2.494,8.875,1.223l15.038-7.479
		c1.933-0.96,5.146-0.493,7.014,1.019c0.854,0.69,1.297,1.499,1.218,2.218c-0.084,0.765-0.722,1.233-1.243,1.492l-16.474,8.193
		l0,12.353l-6.326,3.143c-1.933,0.96-5.145,0.494-7.015-1.018c-0.767-0.621-1.201-1.328-1.226-1.995V46.143z"/>
	<path fill="#FFFFFF" d="M122.877,43.215c2.014,0,3.746-0.704,5.148-2.094c1.404-1.403,2.115-3.143,2.115-5.168
		c0-2.026-0.711-3.758-2.115-5.149c-1.403-1.403-3.136-2.114-5.148-2.114c-2.012,0-3.744,0.711-5.147,2.114
		c-1.392,1.39-2.095,3.122-2.095,5.149c0,2.014,0.705,3.752,2.094,5.168C119.131,42.511,120.863,43.215,122.877,43.215z
		 M119.484,32.478c0.91-0.91,2.051-1.371,3.393-1.371c1.341,0,2.482,0.461,3.393,1.371c0.91,0.91,1.371,2.079,1.371,3.475
		c0,1.395-0.461,2.564-1.371,3.475c-0.896,0.896-2.037,1.35-3.393,1.35c-1.354,0-2.496-0.454-3.393-1.35
		c-0.91-0.91-1.371-2.078-1.371-3.475C118.113,34.556,118.574,33.388,119.484,32.478z"/>
	<path fill="#FFFFFF" d="M159.554,37.977h2.389l2.874,4.953h2.673l-3.108-5.295l0.158-0.07c0.797-0.367,1.447-0.922,1.932-1.647
		c0.482-0.725,0.727-1.522,0.727-2.37c0-1.256-0.449-2.344-1.339-3.232c-0.89-0.889-1.983-1.34-3.253-1.34h-5.551V42.93h2.499
		V37.977z M159.554,31.291h3.052c0.574,0,1.07,0.222,1.481,0.662c0.406,0.435,0.612,0.972,0.612,1.595
		c0,0.622-0.206,1.162-0.611,1.604c-0.41,0.446-0.908,0.673-1.482,0.673h-3.052V31.291z"/>
	<path fill="#FFFFFF" d="M102.697,43.215c1.259,0,2.437-0.298,3.501-0.887c1.016-0.561,1.829-1.322,2.417-2.264l-2.15-1.246
		c-0.35,0.583-0.848,1.053-1.481,1.4c-0.68,0.371-1.449,0.559-2.287,0.559c-1.424,0-2.593-0.454-3.477-1.353
		c-0.868-0.909-1.308-2.077-1.308-3.472c0-1.409,0.44-2.584,1.309-3.495c0.883-0.897,2.052-1.351,3.476-1.351
		c0.838,0,1.604,0.188,2.277,0.559c0.628,0.346,1.128,0.825,1.491,1.421l2.151-1.247c-0.589-0.941-1.401-1.702-2.417-2.264
		c-1.065-0.589-2.242-0.887-3.501-0.887c-2.081,0-3.833,0.704-5.209,2.094c-1.363,1.362-2.053,3.101-2.053,5.169
		c0,2.053,0.69,3.792,2.053,5.169C98.863,42.512,100.616,43.215,102.697,43.215z"/>
	<path fill="#FFFFFF" d="M139.391,41.91c0.984,0.866,2.266,1.305,3.81,1.305c1.556,0,2.846-0.438,3.831-1.305
		c0.979-0.863,1.476-2.037,1.476-3.492v-9.443h-2.5v9.22c0,0.801-0.238,1.438-0.71,1.896c-0.471,0.455-1.176,0.686-2.097,0.686
		c-0.922,0-1.627-0.23-2.098-0.686c-0.47-0.457-0.709-1.096-0.709-1.896v-9.22h-2.479v9.443
		C137.914,39.873,138.41,41.047,139.391,41.91z"/>
</g>
</svg>
