<?xml version="1.0" encoding="utf-8"?>
<!-- Generator: Adobe Illustrator 16.0.0, SVG Export Plug-In . SVG Version: 6.00 Build 0)  -->
<!DOCTYPE svg PUBLIC "-//W3C//DTD SVG 1.1//EN" "http://www.w3.org/Graphics/SVG/1.1/DTD/svg11.dtd">
<svg version="1.1" id="Layer_1" xmlns="http://www.w3.org/2000/svg" xmlns:xlink="http://www.w3.org/1999/xlink" x="0px" y="0px"
	 width="158.543px" height="70.562px" viewBox="0 0 158.543 70.562" enable-background="new 0 0 158.543 70.562"
	 xml:space="preserve">
<g>
	<path fill="#FFFFFF" d="M35.891,36.11c0.34,0.551,0.511,1.202,0.511,1.944c0,1.264-0.467,2.277-1.388,3.018
		c-0.931,0.748-2.154,1.127-3.633,1.127c-1.363,0-2.528-0.307-3.461-0.912c-0.895-0.578-1.55-1.383-1.95-2.389l2.134-1.248
		c0.6,1.4,1.729,2.111,3.359,2.111c0.791,0,1.398-0.148,1.804-0.438c0.422-0.301,0.636-0.715,0.636-1.229
		c0-0.559-0.252-0.994-0.749-1.295c-0.464-0.295-1.264-0.602-2.444-0.936c-1.225-0.371-2.205-0.811-2.908-1.303
		c-0.848-0.629-1.279-1.574-1.279-2.807c0-1.248,0.44-2.244,1.308-2.955c0.879-0.748,1.963-1.127,3.223-1.127
		c1.106,0,2.1,0.273,2.954,0.811c0.816,0.516,1.468,1.244,1.938,2.172l-2.092,1.207c-0.601-1.176-1.542-1.771-2.799-1.771
		c-0.604,0-1.095,0.145-1.462,0.43c-0.378,0.295-0.57,0.684-0.57,1.154c0,0.496,0.206,0.908,0.61,1.225
		c0.433,0.303,1.155,0.604,2.212,0.922l0.973,0.326c0.178,0.055,0.479,0.168,0.91,0.342c0.397,0.146,0.687,0.285,0.865,0.41
		C35.24,35.298,35.674,35.702,35.891,36.11z M44.115,30.335h3.833v11.579h2.499V30.335h3.853v-2.377H44.115V30.335z M119.47,40.103
		c-1.39-1.414-2.093-3.154-2.093-5.167c0-2.027,0.703-3.758,2.094-5.148c1.404-1.404,3.137-2.115,5.147-2.115
		c2.013,0,3.745,0.711,5.148,2.115c1.403,1.391,2.115,3.121,2.115,5.148c0,2.026-0.712,3.764-2.115,5.168
		c-1.401,1.389-3.134,2.094-5.148,2.094C122.605,42.199,120.873,41.494,119.47,40.103z M119.855,34.937
		c0,1.397,0.461,2.565,1.371,3.473c0.896,0.896,2.035,1.352,3.392,1.352c1.354,0,2.497-0.455,3.394-1.352
		c0.91-0.908,1.371-2.078,1.371-3.473c0-1.396-0.461-2.564-1.371-3.475s-2.051-1.371-3.394-1.371c-1.341,0-2.483,0.461-3.392,1.371
		C120.316,32.372,119.855,33.54,119.855,34.937z M107.93,27.958h-2.498v13.956h2.498V27.958z M89.272,41.914h-5.511V27.958h5.511
		c1.903,0,3.511,0.678,4.779,2.01c1.283,1.324,1.934,2.994,1.934,4.969c0,1.971-0.65,3.643-1.933,4.965
		C92.783,41.238,91.176,41.914,89.272,41.914z M86.262,39.537h3.011c1.275,0,2.329-0.428,3.131-1.271
		c0.8-0.871,1.205-1.99,1.205-3.329c0-1.355-0.405-2.469-1.205-3.309c-0.802-0.857-1.855-1.293-3.131-1.293h-3.011V39.537z
		 M158.543,1.78v68.782H0V1.778h0V0l68.783,0l1.778,0.001h87.981v0V1.78z M156.767,1.78H68.783H1.778v67.002h154.988V1.78z
		 M66.384,39.076c-0.471-0.459-0.71-1.098-0.71-1.896v-9.221h-2.479v9.444c0,1.457,0.496,2.629,1.475,3.49
		c0.985,0.867,2.267,1.307,3.81,1.307c1.557,0,2.846-0.439,3.831-1.307c0.979-0.861,1.475-2.033,1.475-3.49v-9.444h-2.499v9.221
		c0,0.799-0.239,1.438-0.71,1.896c-0.47,0.453-1.175,0.686-2.096,0.686C67.559,39.761,66.854,39.529,66.384,39.076z"/>
</g>
</svg>
